<svg xmlns="http://www.w3.org/2000/svg" xmlns:xlink="http://www.w3.org/1999/xlink" width="512" zoomAndPan="magnify" viewBox="0 0 384 225" height="300" preserveAspectRatio="xMidYMid meet" version="1.0"><defs><g/><clipPath id="a817646b1e"><rect x="0" width="334" y="0" height="103"/></clipPath><clipPath id="bbebf5ffc3"><rect x="0" width="298" y="0" height="103"/></clipPath><clipPath id="d401314fbd"><path d="M 252 152 L 275 152 L 275 196 L 252 196 Z M 252 152 " clip-rule="nonzero"/></clipPath><clipPath id="a1eba45a88"><path d="M 222.640625 171.378906 L 273.292969 102.5 L 335.527344 148.265625 L 284.871094 217.144531 Z M 222.640625 171.378906 " clip-rule="nonzero"/></clipPath><clipPath id="6d6164654a"><path d="M 222.640625 171.378906 L 273.292969 102.5 L 335.527344 148.265625 L 284.871094 217.144531 Z M 222.640625 171.378906 " clip-rule="nonzero"/></clipPath><clipPath id="dd2c3b4a71"><path d="M 275 109 L 282 109 L 282 147 L 275 147 Z M 275 109 " clip-rule="nonzero"/></clipPath><clipPath id="e2b3ae40b5"><path d="M 222.640625 171.378906 L 273.292969 102.5 L 335.527344 148.265625 L 284.871094 217.144531 Z M 222.640625 171.378906 " clip-rule="nonzero"/></clipPath><clipPath id="148cf3422a"><path d="M 222.640625 171.378906 L 273.292969 102.5 L 335.527344 148.265625 L 284.871094 217.144531 Z M 222.640625 171.378906 " clip-rule="nonzero"/></clipPath><clipPath id="8895305cf6"><path d="M 268 109 L 301 109 L 301 203 L 268 203 Z M 268 109 " clip-rule="nonzero"/></clipPath><clipPath id="dd7b7742f4"><path d="M 222.640625 171.378906 L 273.292969 102.5 L 335.527344 148.265625 L 284.871094 217.144531 Z M 222.640625 171.378906 " clip-rule="nonzero"/></clipPath><clipPath id="9beda5f7f0"><path d="M 222.640625 171.378906 L 273.292969 102.5 L 335.527344 148.265625 L 284.871094 217.144531 Z M 222.640625 171.378906 " clip-rule="nonzero"/></clipPath></defs><g transform="matrix(1, 0, 0, 1, 26, 98)"><g clip-path="url(#a817646b1e)"><g fill="#ffffff" fill-opacity="1"><g transform="translate(0.733103, 81.040532)"><g><path d="M 25.46875 0.421875 C 21.195312 0.421875 17.128906 -0.3125 13.265625 -1.78125 C 9.410156 -3.257812 6.40625 -5.160156 4.25 -7.484375 L 6.15625 -10.65625 C 8.207031 -8.488281 10.96875 -6.722656 14.4375 -5.359375 C 17.90625 -4.003906 21.554688 -3.328125 25.390625 -3.328125 C 30.929688 -3.328125 35.117188 -4.378906 37.953125 -6.484375 C 40.785156 -8.597656 42.203125 -11.347656 42.203125 -14.734375 C 42.203125 -17.335938 41.453125 -19.414062 39.953125 -20.96875 C 38.453125 -22.53125 36.59375 -23.722656 34.375 -24.546875 C 32.15625 -25.378906 29.160156 -26.242188 25.390625 -27.140625 C 21.117188 -28.191406 17.691406 -29.21875 15.109375 -30.21875 C 12.523438 -31.21875 10.332031 -32.753906 8.53125 -34.828125 C 6.726562 -36.910156 5.828125 -39.703125 5.828125 -43.203125 C 5.828125 -46.023438 6.578125 -48.613281 8.078125 -50.96875 C 9.578125 -53.332031 11.863281 -55.207031 14.9375 -56.59375 C 18.019531 -57.988281 21.863281 -58.6875 26.46875 -58.6875 C 29.6875 -58.6875 32.847656 -58.210938 35.953125 -57.265625 C 39.066406 -56.316406 41.757812 -55.039062 44.03125 -53.4375 L 42.453125 -50.03125 C 40.117188 -51.632812 37.550781 -52.851562 34.75 -53.6875 C 31.945312 -54.519531 29.1875 -54.9375 26.46875 -54.9375 C 21.082031 -54.9375 17.003906 -53.851562 14.234375 -51.6875 C 11.460938 -49.519531 10.078125 -46.71875 10.078125 -43.28125 C 10.078125 -40.675781 10.820312 -38.59375 12.3125 -37.03125 C 13.8125 -35.476562 15.671875 -34.285156 17.890625 -33.453125 C 20.109375 -32.628906 23.132812 -31.742188 26.96875 -30.796875 C 31.238281 -29.742188 34.648438 -28.71875 37.203125 -27.71875 C 39.753906 -26.71875 41.929688 -25.203125 43.734375 -23.171875 C 45.535156 -21.148438 46.4375 -18.421875 46.4375 -14.984375 C 46.4375 -12.148438 45.671875 -9.566406 44.140625 -7.234375 C 42.617188 -4.910156 40.273438 -3.050781 37.109375 -1.65625 C 33.953125 -0.269531 30.070312 0.421875 25.46875 0.421875 Z M 25.46875 0.421875 "/></g></g></g><g fill="#ffffff" fill-opacity="1"><g transform="translate(52.838276, 81.040532)"><g><path d="M 21.3125 -54.4375 L 0.328125 -54.4375 L 0.328125 -58.265625 L 46.53125 -58.265625 L 46.53125 -54.4375 L 25.546875 -54.4375 L 25.546875 0 L 21.3125 0 Z M 21.3125 -54.4375 "/></g></g></g><g fill="#ffffff" fill-opacity="1"><g transform="translate(101.114629, 81.040532)"><g><path d="M 32.953125 0.421875 C 25.578125 0.421875 19.847656 -1.710938 15.765625 -5.984375 C 11.691406 -10.265625 9.65625 -16.507812 9.65625 -24.71875 L 9.65625 -58.265625 L 13.90625 -58.265625 L 13.90625 -24.890625 C 13.90625 -17.734375 15.539062 -12.378906 18.8125 -8.828125 C 22.082031 -5.273438 26.828125 -3.5 33.046875 -3.5 C 39.203125 -3.5 43.914062 -5.273438 47.1875 -8.828125 C 50.46875 -12.378906 52.109375 -17.734375 52.109375 -24.890625 L 52.109375 -58.265625 L 56.34375 -58.265625 L 56.34375 -24.71875 C 56.34375 -16.507812 54.289062 -10.265625 50.1875 -5.984375 C 46.082031 -1.710938 40.335938 0.421875 32.953125 0.421875 Z M 32.953125 0.421875 "/></g></g></g><g fill="#ffffff" fill-opacity="1"><g transform="translate(168.53504, 81.040532)"><g><path d="M 10.15625 -58.265625 L 33.203125 -58.265625 C 39.253906 -58.265625 44.625 -57.015625 49.3125 -54.515625 C 54 -52.015625 57.644531 -48.554688 60.25 -44.140625 C 62.863281 -39.734375 64.171875 -34.726562 64.171875 -29.125 C 64.171875 -23.519531 62.863281 -18.507812 60.25 -14.09375 C 57.644531 -9.6875 54 -6.234375 49.3125 -3.734375 C 44.625 -1.242188 39.253906 0 33.203125 0 L 10.15625 0 Z M 32.875 -3.828125 C 38.257812 -3.828125 43.003906 -4.894531 47.109375 -7.03125 C 51.210938 -9.164062 54.375 -12.144531 56.59375 -15.96875 C 58.8125 -19.800781 59.921875 -24.1875 59.921875 -29.125 C 59.921875 -34.070312 58.8125 -38.457031 56.59375 -42.28125 C 54.375 -46.113281 51.210938 -49.097656 47.109375 -51.234375 C 43.003906 -53.367188 38.257812 -54.4375 32.875 -54.4375 L 14.40625 -54.4375 L 14.40625 -3.828125 Z M 32.875 -3.828125 "/></g></g></g><g fill="#ffffff" fill-opacity="1"><g transform="translate(238.702226, 81.040532)"><g/></g></g><g fill="#ffffff" fill-opacity="1"><g transform="translate(261.508636, 81.040532)"><g><path d="M 34.875 0.421875 C 29.15625 0.421875 23.992188 -0.867188 19.390625 -3.453125 C 14.785156 -6.035156 11.164062 -9.570312 8.53125 -14.0625 C 5.894531 -18.5625 4.578125 -23.582031 4.578125 -29.125 C 4.578125 -34.675781 5.894531 -39.695312 8.53125 -44.1875 C 11.164062 -48.6875 14.785156 -52.226562 19.390625 -54.8125 C 23.992188 -57.394531 29.15625 -58.6875 34.875 -58.6875 C 40.59375 -58.6875 45.753906 -57.40625 50.359375 -54.84375 C 54.960938 -52.289062 58.582031 -48.765625 61.21875 -44.265625 C 63.851562 -39.773438 65.171875 -34.726562 65.171875 -29.125 C 65.171875 -23.519531 63.851562 -18.46875 61.21875 -13.96875 C 58.582031 -9.476562 54.960938 -5.957031 50.359375 -3.40625 C 45.753906 -0.851562 40.59375 0.421875 34.875 0.421875 Z M 34.875 -3.5 C 39.757812 -3.5 44.171875 -4.609375 48.109375 -6.828125 C 52.046875 -9.046875 55.148438 -12.109375 57.421875 -16.015625 C 59.703125 -19.929688 60.84375 -24.300781 60.84375 -29.125 C 60.84375 -33.957031 59.703125 -38.328125 57.421875 -42.234375 C 55.148438 -46.148438 52.046875 -49.21875 48.109375 -51.4375 C 44.171875 -53.65625 39.757812 -54.765625 34.875 -54.765625 C 29.988281 -54.765625 25.5625 -53.65625 21.59375 -51.4375 C 17.625 -49.21875 14.503906 -46.148438 12.234375 -42.234375 C 9.960938 -38.328125 8.828125 -33.957031 8.828125 -29.125 C 8.828125 -24.300781 9.960938 -19.929688 12.234375 -16.015625 C 14.503906 -12.109375 17.625 -9.046875 21.59375 -6.828125 C 25.5625 -4.609375 29.988281 -3.5 34.875 -3.5 Z M 34.875 -3.5 "/></g></g></g></g></g><g transform="matrix(1, 0, 0, 1, 44, 6)"><g clip-path="url(#bbebf5ffc3)"><g fill="#ffffff" fill-opacity="1"><g transform="translate(0.795712, 81.266386)"><g><path d="M 65.25 0 L 65.171875 -49.859375 L 40.78125 -7.734375 L 38.703125 -7.734375 L 14.3125 -49.6875 L 14.3125 0 L 10.15625 0 L 10.15625 -58.265625 L 13.734375 -58.265625 L 39.78125 -13.234375 L 65.84375 -58.265625 L 69.328125 -58.265625 L 69.421875 0 Z M 65.25 0 "/></g></g></g><g fill="#ffffff" fill-opacity="1"><g transform="translate(81.783453, 81.266386)"><g><path d="M 46.1875 -16.390625 L 12.40625 -16.390625 L 5 0 L 0.421875 0 L 27.21875 -58.265625 L 31.46875 -58.265625 L 58.265625 0 L 53.6875 0 Z M 44.609375 -19.96875 L 29.296875 -53.609375 L 14.0625 -19.96875 Z M 44.609375 -19.96875 "/></g></g></g><g fill="#ffffff" fill-opacity="1"><g transform="translate(141.87919, 81.266386)"><g><path d="M 32.953125 0.421875 C 25.578125 0.421875 19.847656 -1.710938 15.765625 -5.984375 C 11.691406 -10.265625 9.65625 -16.507812 9.65625 -24.71875 L 9.65625 -58.265625 L 13.90625 -58.265625 L 13.90625 -24.890625 C 13.90625 -17.734375 15.539062 -12.378906 18.8125 -8.828125 C 22.082031 -5.273438 26.828125 -3.5 33.046875 -3.5 C 39.203125 -3.5 43.914062 -5.273438 47.1875 -8.828125 C 50.46875 -12.378906 52.109375 -17.734375 52.109375 -24.890625 L 52.109375 -58.265625 L 56.34375 -58.265625 L 56.34375 -24.71875 C 56.34375 -16.507812 54.289062 -10.265625 50.1875 -5.984375 C 46.082031 -1.710938 40.335938 0.421875 32.953125 0.421875 Z M 32.953125 0.421875 "/></g></g></g><g fill="#ffffff" fill-opacity="1"><g transform="translate(209.299593, 81.266386)"><g><path d="M 50.609375 0 L 36.703125 -19.484375 C 34.648438 -19.203125 32.765625 -19.0625 31.046875 -19.0625 L 14.40625 -19.0625 L 14.40625 0 L 10.15625 0 L 10.15625 -58.265625 L 31.046875 -58.265625 C 38.367188 -58.265625 44.109375 -56.53125 48.265625 -53.0625 C 52.429688 -49.59375 54.515625 -44.78125 54.515625 -38.625 C 54.515625 -34.019531 53.332031 -30.148438 50.96875 -27.015625 C 48.613281 -23.878906 45.25 -21.671875 40.875 -20.390625 L 55.4375 0 Z M 31.046875 -22.8125 C 37.265625 -22.8125 42.007812 -24.179688 45.28125 -26.921875 C 48.550781 -29.671875 50.1875 -33.570312 50.1875 -38.625 C 50.1875 -43.664062 48.550781 -47.5625 45.28125 -50.3125 C 42.007812 -53.0625 37.265625 -54.4375 31.046875 -54.4375 L 14.40625 -54.4375 L 14.40625 -22.8125 Z M 31.046875 -22.8125 "/></g></g></g><g fill="#ffffff" fill-opacity="1"><g transform="translate(270.643853, 81.266386)"><g><path d="M 10.15625 -58.265625 L 14.40625 -58.265625 L 14.40625 0 L 10.15625 0 Z M 10.15625 -58.265625 "/></g></g></g></g></g><path stroke-linecap="butt" transform="matrix(0.75, 0.000000000000000156, -0.000000000000000156, 0.75, 53.533711, 99.275228)" fill="none" stroke-linejoin="miter" d="M 0.00192651 0.497612 L 273.126938 0.497612 " stroke="#e0bd00" stroke-width="1" stroke-opacity="1" stroke-miterlimit="4"/><path stroke-linecap="butt" transform="matrix(0.75, 0.000000000000000805, -0.000000000000000805, 0.75, 290.73365, 99.275228)" fill="none" stroke-linejoin="miter" d="M 0.000966285 0.497612 L 52.974927 0.497612 " stroke="#e0bd00" stroke-width="1" stroke-opacity="1" stroke-miterlimit="4"/><g clip-path="url(#d401314fbd)"><g clip-path="url(#a1eba45a88)"><g clip-path="url(#6d6164654a)"><path fill="#e0bd00" d="M 269.992188 188.699219 C 271.738281 187.539062 274.210938 187.574219 274.328125 186.082031 C 274.472656 184.105469 271.367188 185.125 269.710938 183.699219 C 269.609375 183.386719 269.480469 183.082031 269.332031 182.796875 C 269.328125 182.761719 269.289062 182.734375 269.285156 182.699219 C 267.753906 179.640625 267.355469 176.132812 268.292969 172.832031 L 271.457031 161.855469 C 271.992188 159.953125 273.035156 158.25 274.421875 156.890625 C 274.234375 156.78125 274.046875 156.671875 273.84375 156.585938 C 272.269531 155.8125 271.070312 154.484375 270.402344 152.921875 L 266.707031 168.71875 C 265.675781 173.113281 262.527344 176.75 258.257812 178.222656 C 257.410156 178.523438 256.550781 178.964844 255.800781 179.542969 C 252.445312 182.078125 251.316406 186.691406 253.097656 190.503906 C 255.4375 195.496094 261.609375 197.179688 266.136719 194.226562 C 268.171875 192.957031 269.488281 190.917969 269.992188 188.699219 Z M 255.601562 190.171875 C 253.703125 187.046875 254.710938 182.964844 257.820312 181.085938 C 260.929688 179.207031 265.023438 180.195312 266.90625 183.304688 C 268.804688 186.425781 267.796875 190.507812 264.6875 192.390625 C 261.578125 194.269531 257.484375 193.28125 255.601562 190.171875 Z M 255.601562 190.171875 " fill-opacity="1" fill-rule="nonzero"/></g></g></g><g clip-path="url(#dd2c3b4a71)"><g clip-path="url(#e2b3ae40b5)"><g clip-path="url(#148cf3422a)"><path fill="#e0bd00" d="M 280.527344 109.730469 L 275.847656 129.777344 L 280.320312 146.523438 L 281.890625 109.902344 C 281.921875 109.089844 280.710938 108.914062 280.527344 109.730469 Z M 280.527344 109.730469 " fill-opacity="1" fill-rule="nonzero"/></g></g></g><g clip-path="url(#8895305cf6)"><g clip-path="url(#dd7b7742f4)"><g clip-path="url(#9beda5f7f0)"><path fill="#e0bd00" d="M 268.082031 110.582031 L 271.042969 150.59375 C 271.210938 152.714844 272.476562 154.597656 274.371094 155.542969 C 277.097656 156.894531 279.179688 159.285156 280.101562 162.199219 L 283.597656 173.074219 C 284.644531 176.34375 284.355469 179.851562 282.925781 182.96875 C 282.914062 182.988281 282.902344 183.042969 282.890625 183.0625 C 281.027344 187.171875 282.585938 192.097656 286.425781 194.445312 C 287.164062 194.898438 287.953125 195.238281 288.757812 195.445312 C 290.691406 195.972656 292.132812 197.570312 292.570312 199.527344 C 292.917969 201.035156 293.375 202.117188 294.175781 202.285156 C 295.292969 202.542969 296.097656 201.734375 295.523438 198.304688 C 295.214844 196.5 295.804688 194.644531 297.160156 193.40625 C 298.0625 192.582031 298.816406 191.558594 299.335938 190.367188 C 301.035156 186.523438 299.765625 181.929688 296.359375 179.480469 C 295.550781 178.917969 294.679688 178.484375 293.8125 178.207031 C 289.507812 176.855469 286.242188 173.320312 285.078125 168.953125 L 269.4375 110.359375 C 269.230469 109.550781 268.007812 109.753906 268.082031 110.582031 Z M 294.355469 180.988281 C 297.53125 182.785156 298.660156 186.832031 296.863281 190.003906 C 295.066406 193.179688 291.019531 194.308594 287.847656 192.511719 C 284.671875 190.714844 283.542969 186.667969 285.339844 183.496094 C 287.132812 180.289062 291.164062 179.175781 294.355469 180.988281 Z M 276.539062 150.289062 C 276.398438 151.167969 275.578125 151.757812 274.699219 151.617188 C 273.820312 151.476562 273.230469 150.65625 273.371094 149.777344 C 273.511719 148.898438 274.332031 148.308594 275.210938 148.449219 C 276.105469 148.570312 276.691406 149.390625 276.539062 150.289062 Z M 276.539062 150.289062 " fill-opacity="1" fill-rule="nonzero"/></g></g></g></svg>